<svg xmlns="http://www.w3.org/2000/svg"  viewBox="0 0 64 64" width="64px" height="64px"><rect width="58" height="42" x="3" y="9" fill="#faefde" rx="4" ry="4"/><path fill="#efd8be" d="M11 51L11 22 32 37 11 51z"/><path fill="#fff7f0" d="M32 28L6 9 58 9 32 28z"/><path fill="#ed7899" d="M31.58,28,7.78,10.51A3,3,0,0,0,3,12.93V47a4,4,0,0,0,4,4h4V22L31.67,37,53,22V51h4a4,4,0,0,0,4-4V12.83a3,3,0,0,0-4.74-2.44Z"/><path fill="#8d6c9f" d="M57,8H7a5,5,0,0,0-5,5V47a5,5,0,0,0,5,5H57a5,5,0,0,0,5-5V13A5,5,0,0,0,57,8Zm-1.85,2L32.59,26.34a1,1,0,0,1-1.17,0L8.85,10ZM12,48a1,1,0,0,0,1-1V45a1,1,0,0,0-1-1V23.75L30.24,37a3,3,0,0,0,3.52,0L52,23.75V44a1,1,0,0,0-1,1v2a1,1,0,0,0,1,1v2H12Zm48-1a3,3,0,0,1-3,3H54V21.79A1,1,0,0,0,52.41,21L32.59,35.34a1,1,0,0,1-1.17,0L11.59,21a1,1,0,0,0-1.59.81V50H7a3,3,0,0,1-3-3V13a3,3,0,0,1,1.79-2.74L30.24,28a3,3,0,0,0,3.52,0l24.45-17.7A3,3,0,0,1,60,13Z"/><path fill="#8d6c9f" d="M17 44a1 1 0 0 0-1 1v2a1 1 0 0 0 2 0V45A1 1 0 0 0 17 44zM22 44a1 1 0 0 0-1 1v2a1 1 0 0 0 2 0V45A1 1 0 0 0 22 44zM27 44a1 1 0 0 0-1 1v2a1 1 0 0 0 2 0V45A1 1 0 0 0 27 44zM32 44a1 1 0 0 0-1 1v2a1 1 0 0 0 2 0V45A1 1 0 0 0 32 44zM37 44a1 1 0 0 0-1 1v2a1 1 0 0 0 2 0V45A1 1 0 0 0 37 44zM42 44a1 1 0 0 0-1 1v2a1 1 0 0 0 2 0V45A1 1 0 0 0 42 44zM47 44a1 1 0 0 0-1 1v2a1 1 0 0 0 2 0V45A1 1 0 0 0 47 44z"/></svg>